<?xml version="1.0" encoding="UTF-8"?>
<svg version="1.1" xmlns="http://www.w3.org/2000/svg" width="783" height="521">
<path d="M0 0 C1.23234375 0.45117188 2.4646875 0.90234375 3.734375 1.3671875 C17.18567975 6.44979928 29.59770689 12.79367669 41.5 20.875 C42.34401367 21.44677979 43.18802734 22.01855957 44.05761719 22.60766602 C48.50731054 25.70441207 48.50731054 25.70441207 50 27 C50 27.66 50 28.32 50 29 C51.65 29.66 53.3 30.32 55 31 C55 31.66 55 32.32 55 33 C55.57234375 33.2475 56.1446875 33.495 56.734375 33.75 C59.35010611 35.19316199 61.14773456 36.88216222 63.25 39 C64.30960938 40.051875 64.30960938 40.051875 65.390625 41.125 C67 43 67 43 67 45 C67.66 45 68.32 45 69 45 C73 49.47058824 73 49.47058824 73 52 C73.99 52.33 74.98 52.66 76 53 C76 53.66 76 54.32 76 55 C76.66 55 77.32 55 78 55 C79.5078125 56.4609375 79.5078125 56.4609375 81.125 58.375 C81.93324219 59.31472656 81.93324219 59.31472656 82.7578125 60.2734375 C84 62 84 62 84 64 C84.66 64 85.32 64 86 64 C86.33 65.32 86.66 66.64 87 68 C87.66 68 88.32 68 89 68 C89.33 69.65 89.66 71.3 90 73 C90.66 73 91.32 73 92 73 C92.33 74.65 92.66 76.3 93 78 C93.66 78 94.32 78 95 78 C95.33 79.32 95.66 80.64 96 82 C96.66 82 97.32 82 98 82 C98.33 83.65 98.66 85.3 99 87 C99.66 87 100.32 87 101 87 C102.00732399 88.93370231 103.00563288 90.87210306 104 92.8125 C104.8353125 94.43091797 104.8353125 94.43091797 105.6875 96.08203125 C107 99 107 99 107 102 C107.66 102 108.32 102 109 102 C109.33 103.65 109.66 105.3 110 107 C110.66 107 111.32 107 112 107 C112.33 109.31 112.66 111.62 113 114 C113.66 114 114.32 114 115 114 C115.33 115.98 115.66 117.96 116 120 C116.66 120 117.32 120 118 120 C118.33 122.31 118.66 124.62 119 127 C119.66 127 120.32 127 121 127 C121.33 129.31 121.66 131.62 122 134 C122.66 134 123.32 134 124 134 C124.33 136.97 124.66 139.94 125 143 C125.66 143 126.32 143 127 143 C127.33 145.97 127.66 148.94 128 152 C128.66 152 129.32 152 130 152 C130.33 156.62 130.66 161.24 131 166 C131.66 166 132.32 166 133 166 C134.69639433 173.81732512 135.31931042 181.26011751 135.25 189.25 C135.24613281 190.33595459 135.24226563 191.42190918 135.23828125 192.54077148 C135.14950559 200.83204826 134.48579412 208.84139836 133 217 C132.34 217 131.68 217 131 217 C130.95101563 218.07378906 130.90203125 219.14757812 130.8515625 220.25390625 C130.77646602 221.69012642 130.70092124 223.12632319 130.625 224.5625 C130.5940625 225.26697266 130.563125 225.97144531 130.53125 226.69726562 C130.27198582 231.3856262 129.42713241 235.49561333 128 240 C127.64628502 241.66246041 127.30404678 243.32774271 127 245 C126.34 245 125.68 245 125 245 C124.67 248.3 124.34 251.6 124 255 C123.34 255 122.68 255 122 255 C121.67 257.64 121.34 260.28 121 263 C120.34 263 119.68 263 119 263 C118.67 264.98 118.34 266.96 118 269 C117.34 269 116.68 269 116 269 C115.91878906 269.82757813 115.83757812 270.65515625 115.75390625 271.5078125 C114.82927461 275.79082126 113.06643331 279.08042457 110.9375 282.875 C110.56044922 283.56335938 110.18339844 284.25171875 109.79492188 284.9609375 C108.87106965 286.6449213 107.93660333 288.32307467 107 290 C106.34 290 105.68 290 105 290 C104.67 291.32 104.34 292.64 104 294 C103.34 294 102.68 294 102 294 C101.67 295.32 101.34 296.64 101 298 C100.34 298 99.68 298 99 298 C98.67 299.32 98.34 300.64 98 302 C97.34 302 96.68 302 96 302 C95.896875 302.598125 95.79375 303.19625 95.6875 303.8125 C94.90175967 306.31258286 94.03081147 307.37535082 92 309 C91.34 309 90.68 309 90 309 C89.6596875 309.8353125 89.6596875 309.8353125 89.3125 310.6875 C86.7809888 315.14778164 83.49728171 317.75135914 79 320 C78.67 320.99 78.34 321.98 78 323 C76.328125 324.4296875 76.328125 324.4296875 74.25 325.875 C71.65736118 327.7361443 69.5241638 329.4758362 67.25 331.75 C65.20204726 333.79795274 63.6530855 334.91911331 61 336 C61 336.66 61 337.32 61 338 C59.15582272 339.285793 57.24531433 340.47674818 55.3125 341.625 C54.11564054 342.3407365 52.919033 343.05689443 51.72265625 343.7734375 C51.10535645 344.14049805 50.48805664 344.50755859 49.85205078 344.88574219 C48.07253676 345.95635937 46.3130978 347.05302824 44.55859375 348.1640625 C39.24458738 351.51433334 34.05833062 354.63406975 28.24609375 357.02734375 C25.74387489 358.11091331 23.40037452 359.3939061 21 360.6875 C6.61883752 367.95202038 -9.40601565 373.04090553 -25 377 C-25.97453125 377.27328125 -26.9490625 377.5465625 -27.953125 377.828125 C-59.16671866 385.99168027 -96.82263908 383.39915793 -128 376 C-129.06903564 375.76506836 -129.06903564 375.76506836 -130.15966797 375.52539062 C-146.02252378 372.01748521 -164.91436964 366.48134884 -177 355 C-177 354.34 -177 353.68 -177 353 C-178.051875 352.6596875 -178.051875 352.6596875 -179.125 352.3125 C-182.74128535 350.66158712 -185.08769976 348.7091165 -188 346 C-188 345.34 -188 344.68 -188 344 C-188.99 343.67 -189.98 343.34 -191 343 C-191 342.34 -191 341.68 -191 341 C-191.99 340.67 -192.98 340.34 -194 340 C-194 339.34 -194 338.68 -194 338 C-194.66 338 -195.32 338 -196 338 C-196.33 336.68 -196.66 335.36 -197 334 C-197.66 334 -198.32 334 -199 334 C-199.33 332.68 -199.66 331.36 -200 330 C-200.66 330 -201.32 330 -202 330 C-202.33 328.68 -202.66 327.36 -203 326 C-203.66 326 -204.32 326 -205 326 C-205.33 324.68 -205.66 323.36 -206 322 C-206.66 322 -207.32 322 -208 322 C-209.6366755 319.73701547 -211.14565511 317.48732888 -212.625 315.125 C-213.04523438 314.47402344 -213.46546875 313.82304687 -213.8984375 313.15234375 C-217 308.26838981 -217 308.26838981 -217 306 C-217.66 306 -218.32 306 -219 306 C-219.33 304.02 -219.66 302.04 -220 300 C-220.66 300 -221.32 300 -222 300 C-222.33 298.35 -222.66 296.7 -223 295 C-223.66 295 -224.32 295 -225 295 C-225.33 293.02 -225.66 291.04 -226 289 C-226.66 289 -227.32 289 -228 289 C-228.33 287.02 -228.66 285.04 -229 283 C-229.66 283 -230.32 283 -231 283 C-231.23074219 282.39414062 -231.46148437 281.78828125 -231.69921875 281.1640625 C-233.84298201 275.65637033 -236.23515078 270.4265585 -239.046875 265.2265625 C-240 263 -240 263 -240 259 C-240.66 259 -241.32 259 -242 259 C-242.33 256.36 -242.66 253.72 -243 251 C-243.66 251 -244.32 251 -245 251 C-245.33 248.36 -245.66 245.72 -246 243 C-246.66 243 -247.32 243 -248 243 C-248.33 240.03 -248.66 237.06 -249 234 C-249.66 234 -250.32 234 -251 234 C-251.495 228.06 -251.495 228.06 -252 222 C-252.66 222 -253.32 222 -254 222 C-254.495 216.06 -254.495 216.06 -255 210 C-255.66 210 -256.32 210 -257 210 C-258.11391524 200.92121016 -258.15356212 191.88891827 -258.13037109 182.75878906 C-258.12504029 180.26881741 -258.13032918 177.77902848 -258.13671875 175.2890625 C-258.14131906 165.52624171 -258.12128295 155.7107666 -257 146 C-256.67 145.67 -256.34 145.34 -256 145 C-255.62607155 142.49935351 -255.29475984 140.01006422 -255 137.5 C-254.13513514 130.13513514 -254.13513514 130.13513514 -253 129 C-252.45783976 125.77437436 -252.03401348 122.53838585 -251.59765625 119.296875 C-251.0423755 116.23375764 -250.18755529 113.85796273 -249 111 C-248.26159151 108.39940077 -247.5509932 105.80384406 -246.875 103.1875 C-246.69324219 102.49462891 -246.51148438 101.80175781 -246.32421875 101.08789062 C-245.87995492 99.39267339 -245.4395801 97.69643778 -245 96 C-244.34 96 -243.68 96 -243 96 C-242.67 93.36 -242.34 90.72 -242 88 C-241.34 88 -240.68 88 -240 88 C-239.67 85.69 -239.34 83.38 -239 81 C-238.34 81 -237.68 81 -237 81 C-236.814375 79.88625 -236.814375 79.88625 -236.625 78.75 C-236.04513299 76.19858515 -235.26291261 74.2732427 -234 72 C-233.34 72 -232.68 72 -232 72 C-231.67 70.35 -231.34 68.7 -231 67 C-230.34 67 -229.68 67 -229 67 C-228.67 65.35 -228.34 63.7 -228 62 C-227.34 62 -226.68 62 -226 62 C-225.67 60.35 -225.34 58.7 -225 57 C-224.34 57 -223.68 57 -223 57 C-222.505 55.02 -222.505 55.02 -222 53 C-221.34 53 -220.68 53 -220 53 C-219.67 51.68 -219.34 50.36 -219 49 C-218.34 49 -217.68 49 -217 49 C-216.67 48.01 -216.34 47.02 -216 46 C-215.34 46 -214.68 46 -214 46 C-213.7525 45.443125 -213.505 44.88625 -213.25 44.3125 C-210.44587026 39.12485999 -206.63356433 35.52553808 -202 32 C-201.34 32 -200.68 32 -200 32 C-199.67 31.01 -199.34 30.02 -199 29 C-193.62857143 25 -193.62857143 25 -191 25 C-191 24.34 -191 23.68 -191 23 C-182.16021953 17.75606243 -173.2440476 12.95562631 -163.83398438 8.81152344 C-162.11563582 8.05116792 -160.40887906 7.26476639 -158.703125 6.4765625 C-111.84917288 -13.92757794 -48.19566962 -17.72836305 0 0 Z " fill="#F5F6F5" transform="translate(455,73)"/>
<path d="M0 0 C12.93947494 7.53911556 20.09612007 18.60599131 24.8203125 32.50390625 C27.35027962 48.10537013 23.66410956 62.58572431 14.77734375 75.5234375 C8.17686946 83.91894162 -1.74686509 89.45756226 -11.8515625 92.52734375 C-12.8415625 92.03234375 -12.8415625 92.03234375 -13.8515625 91.52734375 C-13.8515625 90.86734375 -13.8515625 90.20734375 -13.8515625 89.52734375 C-14.6559375 88.74359375 -15.4603125 87.95984375 -16.2890625 87.15234375 C-18.79718119 84.58305144 -19.23783797 83.84286706 -19.8515625 80.52734375 C-22.95142673 80.54034108 -25.85708048 80.6893158 -28.8515625 81.52734375 C-30.81885211 84.37800104 -30.81885211 84.37800104 -31.8515625 87.52734375 C-32.8415625 88.18734375 -33.8315625 88.84734375 -34.8515625 89.52734375 C-34.8515625 90.51734375 -34.8515625 91.50734375 -34.8515625 92.52734375 C-42.6741196 90.86048112 -48.50695413 88.38863504 -54.8515625 83.52734375 C-55.8828125 82.78484375 -56.9140625 82.04234375 -57.9765625 81.27734375 C-66.9184619 72.72422259 -73.66732102 60.88725825 -74.1171875 48.34375 C-74.12572839 46.92579741 -74.12027154 45.50769863 -74.1015625 44.08984375 C-74.09479492 43.34484619 -74.08802734 42.59984863 -74.08105469 41.83227539 C-73.81433177 27.63858431 -68.52681007 17.59433364 -58.78515625 7.35546875 C-53.40019986 2.23060865 -47.78375875 -0.86169766 -40.8515625 -3.47265625 C-39.95050781 -3.83875 -39.04945313 -4.20484375 -38.12109375 -4.58203125 C-25.45791827 -8.03149841 -11.46329687 -5.92008619 0 0 Z " fill="#F2F4F4" transform="translate(415.8515625,147.47265625)"/>
<path d="M0 0 C2.84453489 2.84453489 2.05806995 10.09297681 2.4375 14.0625 C2.50280914 14.7391571 2.56811829 15.41581421 2.63540649 16.11297607 C5.32102632 44.33269965 6.44368588 72.65871122 6 101 C3.85904827 101.68218092 1.71190584 102.34494298 -0.4375 103 C-1.63246094 103.37125 -2.82742188 103.7425 -4.05859375 104.125 C-8 105 -8 105 -17 105 C-17 97.74 -17 90.48 -17 83 C-19.475 83.99 -19.475 83.99 -22 85 C-22.99 91.93 -23.98 98.86 -25 106 C-32.25812264 106.83747569 -38.76911151 106.96020651 -46 106 C-46.1636574 98.15493093 -45.68930755 90.5252224 -44.828125 82.73046875 C-44.70565903 81.58272476 -44.58319305 80.43498077 -44.45701599 79.25245667 C-44.06111953 75.56340797 -43.6561188 71.87543623 -43.25 68.1875 C-42.97498239 65.65592816 -42.69999876 63.12435263 -42.42504883 60.59277344 C-37.01082252 11.08905098 -37.01082252 11.08905098 -35 5 C-31.01180206 2.77929887 -26.45666359 2.15781917 -22 1.375 C-21.25685547 1.24383789 -20.51371094 1.11267578 -19.74804688 0.97753906 C-13.18483536 -0.10508152 -6.64695961 -0.57606983 0 0 Z " fill="#F0F3F3" transform="translate(360,267)"/>
<path d="M0 0 C0.80695313 -0.01611328 1.61390625 -0.03222656 2.4453125 -0.04882812 C7.80215929 -0.05317621 11.77384395 0.45456544 16.375 3.3125 C17.6796875 6.24609375 17.6796875 6.24609375 18.25 9.75 C18.45367187 10.88308594 18.65734375 12.01617187 18.8671875 13.18359375 C20.19798269 23.13809302 20.58022943 33.09079545 20.625 43.125 C20.645625 44.29998047 20.66625 45.47496094 20.6875 46.68554688 C20.73124626 56.36987467 19.39387853 62.17565713 12.375 69.3125 C9.93735673 71.00030742 7.39717295 72.35874326 4.75 73.6875 C4.08226562 74.04199219 3.41453125 74.39648438 2.7265625 74.76171875 C-0.23220418 76.29435989 -2.24848765 77.3125 -5.625 77.3125 C-5.955 86.2225 -6.285 95.1325 -6.625 104.3125 C-11.3787823 106.21401292 -13.77916031 106.5580459 -18.75 106.5 C-20.57917969 106.49033203 -20.57917969 106.49033203 -22.4453125 106.48046875 C-25.625 106.3125 -25.625 106.3125 -28.625 105.3125 C-28.58741577 104.27814819 -28.58741577 104.27814819 -28.54907227 103.22290039 C-27.76959362 81.04929583 -27.39160074 58.87144577 -27.0625 36.6875 C-27.0458473 35.56526976 -27.0458473 35.56526976 -27.02885818 34.42036819 C-26.89020354 25.05113559 -26.75571339 15.68184699 -26.625 6.3125 C-17.7085271 1.66391629 -10.06720393 -0.04059356 0 0 Z " fill="#F2F4F4" transform="translate(399.625,266.6875)"/>
<path d="M0 0 C-0.66488124 4.00739523 -1.89180233 7.52037903 -3.40625 11.28515625 C-3.9041159 12.53684112 -4.40149036 13.78872156 -4.8984375 15.04077148 C-5.15979492 15.696008 -5.42115234 16.35124451 -5.69042969 17.02633667 C-13.86072829 37.57558626 -21.03791965 58.42573761 -26 80 C-20.72 79.34 -15.44 78.68 -10 78 C-9.94614556 81.43770829 -9.90639656 84.87457642 -9.875 88.3125 C-9.85824219 89.28896484 -9.84148437 90.26542969 -9.82421875 91.27148438 C-9.81455078 92.67817383 -9.81455078 92.67817383 -9.8046875 94.11328125 C-9.78897705 95.40939331 -9.78897705 95.40939331 -9.77294922 96.73168945 C-10 99 -10 99 -12 102 C-13.82836914 102.78369141 -13.82836914 102.78369141 -16.03515625 103.3515625 C-16.84533203 103.56296875 -17.65550781 103.774375 -18.49023438 103.9921875 C-19.76350586 104.30542969 -19.76350586 104.30542969 -21.0625 104.625 C-21.88427734 104.8415625 -22.70605469 105.058125 -23.55273438 105.28125 C-33.75605476 107.88225378 -43.5005506 108.1019364 -54 108 C-52.70151255 97.95027076 -50.45303336 88.27721746 -47.875 78.5 C-47.47762665 76.9742856 -47.08057742 75.44848676 -46.68383789 73.92260742 C-42.93938257 59.57389984 -39.00319955 45.27844199 -35 31 C-39.62 31.66 -44.24 32.32 -49 33 C-49.08159761 29.83280371 -49.14078461 26.66774848 -49.1875 23.5 C-49.21263672 22.613125 -49.23777344 21.72625 -49.26367188 20.8125 C-49.32980166 14.81673298 -48.44131875 10.48495762 -46 5 C-30.65564131 2.37916532 -15.61031699 -0.09361509 0 0 Z " fill="#09151B" transform="translate(321,266)"/>
<path d="M0 0 C6.61869679 0.27577903 9.97846599 2.88452539 15 7 C15.99 7.66 16.98 8.32 18 9 C15.69014746 16.28022831 12.87679014 23.26632694 9.9375 30.3125 C-0.61023962 55.97919406 -9.42205697 82.03043356 -16 109 C-22.68300615 109.72641371 -27.31879687 107.42741688 -33 104 C-33.66 103.34 -34.32 102.68 -35 102 C-34.67805479 94.3518382 -32.61319934 87.21742249 -30.5625 79.875 C-30.09360352 78.16376953 -30.09360352 78.16376953 -29.61523438 76.41796875 C-29.31037109 75.30808594 -29.00550781 74.19820313 -28.69140625 73.0546875 C-28.40120605 71.99531982 -28.11100586 70.93595215 -27.81201172 69.84448242 C-27.33533562 68.17468291 -26.8326235 66.51124942 -26.27001953 64.8684082 C-24.75906347 60.44399063 -25.18999113 57.80856382 -26.75 53.4375 C-26.96736816 52.81762207 -27.18473633 52.19774414 -27.40869141 51.55908203 C-30.04641308 44.34234518 -33.40347374 37.39490515 -36.78417969 30.50170898 C-37.21375977 29.60137939 -37.64333984 28.7010498 -38.0859375 27.7734375 C-38.4782959 26.97341309 -38.8706543 26.17338867 -39.27490234 25.34912109 C-40.15720504 22.49069803 -39.86000389 20.83872652 -39 18 C-35.36491323 12.57817567 -30.55383863 8.35326106 -25 5 C-23.68 5 -22.36 5 -21 5 C-17.7 11.27 -14.4 17.54 -11 24 C-8.12724141 17.59856268 -8.12724141 17.59856268 -5.25634766 11.19628906 C-4.89589355 10.39416992 -4.53543945 9.59205078 -4.1640625 8.765625 C-3.79748535 7.94868164 -3.4309082 7.13173828 -3.05322266 6.29003906 C-2.07795543 4.16949975 -1.05708873 2.08075174 0 0 Z " fill="#08141A" transform="translate(498,265)"/>
<path d="M0 0 C1.15862549 0.01353516 2.31725098 0.02707031 3.51098633 0.04101562 C4.38779053 0.05841797 5.26459473 0.07582031 6.16796875 0.09375 C6.08232666 1.21305908 5.99668457 2.33236816 5.90844727 3.4855957 C4.0208561 28.35425825 2.60345237 53.1556964 2.16796875 78.09375 C3.03808594 77.8771875 3.03808594 77.8771875 3.92578125 77.65625 C8.4345655 76.58485572 12.49851122 75.85429064 17.16796875 76.09375 C17.19498905 78.84381608 17.21481758 81.59361546 17.23046875 84.34375 C17.23884766 85.12105469 17.24722656 85.89835937 17.25585938 86.69921875 C17.25908203 87.45332031 17.26230469 88.20742188 17.265625 88.984375 C17.27086182 89.67563477 17.27609863 90.36689453 17.28149414 91.07910156 C17.16084707 93.22013293 16.83573395 95.055929 16.16796875 97.09375 C7.37185411 103.40400616 -8.30852407 104.21817699 -18.83203125 104.09375 C-19.03945637 79.36388876 -19.03832326 54.67789306 -17.89453125 29.96875 C-17.85096497 29.00917389 -17.80739868 28.04959778 -17.76251221 27.0609436 C-17.63653297 24.33978631 -17.50391393 21.61907437 -17.3671875 18.8984375 C-17.32859116 18.10570938 -17.28999481 17.31298126 -17.25022888 16.49623108 C-17.00743176 11.97524765 -16.53943626 7.56620804 -15.83203125 3.09375 C-10.31010453 0.84754252 -5.98645257 -0.09099105 0 0 Z " fill="#081319" transform="translate(443.83203125,269.90625)"/>
<path d="M0 0 C2.84453489 2.84453489 2.05806995 10.09297681 2.4375 14.0625 C2.50280914 14.7391571 2.56811829 15.41581421 2.63540649 16.11297607 C5.32102632 44.33269965 6.44368588 72.65871122 6 101 C3.85904827 101.68218092 1.71190584 102.34494298 -0.4375 103 C-1.63246094 103.37125 -2.82742188 103.7425 -4.05859375 104.125 C-8 105 -8 105 -17 105 C-17 97.74 -17 90.48 -17 83 C-19.475 83.99 -19.475 83.99 -22 85 C-22.99 91.93 -23.98 98.86 -25 106 C-32.25812264 106.83747569 -38.76911151 106.96020651 -46 106 C-46.1636574 98.15493093 -45.68930755 90.5252224 -44.828125 82.73046875 C-44.70565903 81.58272476 -44.58319305 80.43498077 -44.45701599 79.25245667 C-44.06111953 75.56340797 -43.6561188 71.87543623 -43.25 68.1875 C-42.97498239 65.65592816 -42.69999876 63.12435263 -42.42504883 60.59277344 C-37.01082252 11.08905098 -37.01082252 11.08905098 -35 5 C-31.01180206 2.77929887 -26.45666359 2.15781917 -22 1.375 C-21.25685547 1.24383789 -20.51371094 1.11267578 -19.74804688 0.97753906 C-13.18483536 -0.10508152 -6.64695961 -0.57606983 0 0 Z M-31 10 C-32.42239484 19.32221484 -33.51089761 28.60157209 -34.2890625 38 C-34.39721283 39.27875 -34.50536316 40.5575 -34.61679077 41.875 C-34.84299927 44.55706856 -35.06612939 47.2393708 -35.28710938 49.921875 C-35.56718191 53.31733487 -35.8562779 56.71195756 -36.1478672 60.10644531 C-36.42956435 63.40384513 -36.70256494 66.7019515 -36.9765625 70 C-37.07965729 71.19625 -37.18275208 72.3925 -37.28897095 73.625 C-37.94628681 81.7319192 -38.40738045 89.86690376 -38 98 C-37.67 98.33 -37.34 98.66 -37 99 C-34.36 99 -31.72 99 -29 99 C-28.34 92.73 -27.68 86.46 -27 80 C-19.125 77.75 -19.125 77.75 -15.0625 78.375 C-14.29035156 78.48585938 -13.51820313 78.59671875 -12.72265625 78.7109375 C-12.15417969 78.80632812 -11.58570313 78.90171875 -11 79 C-10.0672582 83.099361 -9.71174738 87.12043288 -9.4375 91.3125 C-9.31181641 93.19388672 -9.31181641 93.19388672 -9.18359375 95.11328125 C-9.12300781 96.06589844 -9.06242187 97.01851563 -9 98 C-5.27091669 97.49800802 -1.63852314 96.95792977 2 96 C1.48242158 80.90380444 0.38753833 65.9231041 -1.10180664 50.89257812 C-1.4398862 47.47588464 -1.76840515 44.05836652 -2.09570312 40.640625 C-3.1535582 29.71983577 -4.26178092 18.83730125 -6 8 C-14.61814498 7.81674267 -22.56982958 8.15417521 -31 10 Z " fill="#081419" transform="translate(360,267)"/>
<path d="M0 0 C0.80695313 -0.01611328 1.61390625 -0.03222656 2.4453125 -0.04882812 C7.80215929 -0.05317621 11.77384395 0.45456544 16.375 3.3125 C17.6796875 6.24609375 17.6796875 6.24609375 18.25 9.75 C18.45367187 10.88308594 18.65734375 12.01617187 18.8671875 13.18359375 C20.19798269 23.13809302 20.58022943 33.09079545 20.625 43.125 C20.645625 44.29998047 20.66625 45.47496094 20.6875 46.68554688 C20.73124626 56.36987467 19.39387853 62.17565713 12.375 69.3125 C9.93735673 71.00030742 7.39717295 72.35874326 4.75 73.6875 C4.08226562 74.04199219 3.41453125 74.39648438 2.7265625 74.76171875 C-0.23220418 76.29435989 -2.24848765 77.3125 -5.625 77.3125 C-5.955 86.2225 -6.285 95.1325 -6.625 104.3125 C-11.3787823 106.21401292 -13.77916031 106.5580459 -18.75 106.5 C-20.57917969 106.49033203 -20.57917969 106.49033203 -22.4453125 106.48046875 C-25.625 106.3125 -25.625 106.3125 -28.625 105.3125 C-28.58741577 104.27814819 -28.58741577 104.27814819 -28.54907227 103.22290039 C-27.76959362 81.04929583 -27.39160074 58.87144577 -27.0625 36.6875 C-27.0458473 35.56526976 -27.0458473 35.56526976 -27.02885818 34.42036819 C-26.89020354 25.05113559 -26.75571339 15.68184699 -26.625 6.3125 C-17.7085271 1.66391629 -10.06720393 -0.04059356 0 0 Z M-22.625 10.3125 C-22.59765274 10.96185013 -22.57030548 11.61120026 -22.54212952 12.28022766 C-21.78162465 30.66617495 -21.36020005 49.04543798 -21.09277344 67.44372559 C-21.04122693 70.94493905 -20.98625862 74.44609897 -20.93164062 77.94726562 C-20.82621573 84.73563025 -20.72435557 91.52404388 -20.625 98.3125 C-17.655 98.3125 -14.685 98.3125 -11.625 98.3125 C-11.295 90.3925 -10.965 82.4725 -10.625 74.3125 C-1.4375 70.125 -1.4375 70.125 1.43041992 68.83911133 C6.30519463 66.57221949 9.95512247 64.49996527 13.375 60.3125 C16.95285872 49.57892384 14.66670921 34.95061032 13.5625 23.8125 C13.49248779 23.05517578 13.42247559 22.29785156 13.3503418 21.51757812 C12.80020731 16.63383188 11.76554086 12.63664851 9.375 8.3125 C5.16749061 6.76524396 0.61249026 7.08992054 -3.8125 7.0625 C-4.62525391 7.041875 -5.43800781 7.02125 -6.27539062 7 C-7.08556641 6.99484375 -7.89574219 6.9896875 -8.73046875 6.984375 C-9.45387451 6.9750293 -10.17728027 6.96568359 -10.92260742 6.95605469 C-15.00428746 7.49442788 -18.76113616 8.92600204 -22.625 10.3125 Z " fill="#091319" transform="translate(399.625,266.6875)"/>
<path d="M0 0 C12.93947494 7.53911556 20.09612007 18.60599131 24.8203125 32.50390625 C27.35027962 48.10537013 23.66410956 62.58572431 14.77734375 75.5234375 C8.17686946 83.91894162 -1.74686509 89.45756226 -11.8515625 92.52734375 C-12.8415625 92.03234375 -12.8415625 92.03234375 -13.8515625 91.52734375 C-13.8515625 90.86734375 -13.8515625 90.20734375 -13.8515625 89.52734375 C-14.6559375 88.74359375 -15.4603125 87.95984375 -16.2890625 87.15234375 C-18.79718119 84.58305144 -19.23783797 83.84286706 -19.8515625 80.52734375 C-22.95142673 80.54034108 -25.85708048 80.6893158 -28.8515625 81.52734375 C-30.81885211 84.37800104 -30.81885211 84.37800104 -31.8515625 87.52734375 C-32.8415625 88.18734375 -33.8315625 88.84734375 -34.8515625 89.52734375 C-34.8515625 90.51734375 -34.8515625 91.50734375 -34.8515625 92.52734375 C-42.6741196 90.86048112 -48.50695413 88.38863504 -54.8515625 83.52734375 C-55.8828125 82.78484375 -56.9140625 82.04234375 -57.9765625 81.27734375 C-66.9184619 72.72422259 -73.66732102 60.88725825 -74.1171875 48.34375 C-74.12572839 46.92579741 -74.12027154 45.50769863 -74.1015625 44.08984375 C-74.09479492 43.34484619 -74.08802734 42.59984863 -74.08105469 41.83227539 C-73.81433177 27.63858431 -68.52681007 17.59433364 -58.78515625 7.35546875 C-53.40019986 2.23060865 -47.78375875 -0.86169766 -40.8515625 -3.47265625 C-39.95050781 -3.83875 -39.04945313 -4.20484375 -38.12109375 -4.58203125 C-25.45791827 -8.03149841 -11.46329687 -5.92008619 0 0 Z M-59.6015625 12.08984375 C-69.37441621 24.12886643 -72.13137395 37.4102249 -70.8515625 52.52734375 C-68.26896309 65.61743335 -60.65801253 75.3625597 -50.03515625 83.09375 C-43.4565674 87.48905152 -43.4565674 87.48905152 -35.9140625 87.96484375 C-33.59098608 86.53237141 -33.59098608 86.53237141 -31.8515625 83.52734375 C-31.8515625 82.53734375 -31.8515625 81.54734375 -31.8515625 80.52734375 C-32.99496094 80.46675781 -34.13835937 80.40617187 -35.31640625 80.34375 C-36.80730555 80.25935947 -38.29819025 80.17471073 -39.7890625 80.08984375 C-40.54380859 80.05052734 -41.29855469 80.01121094 -42.07617188 79.97070312 C-47.73828125 79.640625 -47.73828125 79.640625 -48.8515625 78.52734375 C-48.93807861 77.11164252 -48.95861154 75.69174875 -48.94921875 74.2734375 C-48.94599609 73.41943359 -48.94277344 72.56542969 -48.93945312 71.68554688 C-48.93107422 70.78771484 -48.92269531 69.88988281 -48.9140625 68.96484375 C-48.90955078 68.06314453 -48.90503906 67.16144531 -48.90039062 66.23242188 C-48.88856494 63.99736786 -48.87062888 61.76234773 -48.8515625 59.52734375 C-48.3565625 65.46734375 -48.3565625 65.46734375 -47.8515625 71.52734375 C-32.3415625 71.52734375 -16.8315625 71.52734375 -0.8515625 71.52734375 C-0.8309375 67.09296875 -0.8103125 62.65859375 -0.7890625 58.08984375 C-0.7799585 56.68935791 -0.77085449 55.28887207 -0.76147461 53.84594727 C-0.75897705 52.75209717 -0.75647949 51.65824707 -0.75390625 50.53125 C-0.74605103 48.84237671 -0.74605103 48.84237671 -0.73803711 47.11938477 C-0.55610802 44.59763504 -0.55610802 44.59763504 -1.8515625 43.52734375 C-3.77823757 43.43986168 -5.70808111 43.42037041 -7.63671875 43.4296875 C-8.80654297 43.43291016 -9.97636719 43.43613281 -11.18164062 43.43945312 C-12.41333984 43.44783203 -13.64503906 43.45621094 -14.9140625 43.46484375 C-16.14962891 43.46935547 -17.38519531 43.47386719 -18.65820312 43.47851562 C-21.72270367 43.49034767 -24.78710971 43.50683202 -27.8515625 43.52734375 C-27.8515625 42.86734375 -27.8515625 42.20734375 -27.8515625 41.52734375 C-18.2815625 41.85734375 -8.7115625 42.18734375 1.1484375 42.52734375 C1.02879899 47.63616285 0.90626761 52.74473442 0.77612305 57.85327148 C0.73271177 59.59248663 0.69104138 61.3317461 0.65112305 63.07104492 C0.59356982 65.56572863 0.5298333 68.06018785 0.46484375 70.5546875 C0.44813126 71.33698227 0.43141876 72.11927704 0.41419983 72.92527771 C0.26230921 78.41347204 0.26230921 78.41347204 -0.8515625 79.52734375 C-3.71034159 79.76435614 -6.55039547 79.94953557 -9.4140625 80.08984375 C-10.22037109 80.13302734 -11.02667969 80.17621094 -11.85742188 80.22070312 C-13.85525055 80.32709637 -15.8533832 80.42775263 -17.8515625 80.52734375 C-17.30317188 83.50954503 -17.30317188 83.50954503 -15.8515625 86.52734375 C-12.45325009 88.39449563 -10.74012206 88.77618898 -6.9921875 87.7265625 C7.06925761 80.37280674 16.20718473 71.14366769 21.3359375 56.02734375 C24.03275424 44.11064074 22.53453462 31.62660255 16.72265625 20.89453125 C13.98567361 16.60871348 10.93818312 12.9381148 7.1484375 9.52734375 C6.2615625 8.70234375 5.3746875 7.87734375 4.4609375 7.02734375 C-14.56033424 -8.51323136 -42.93347544 -5.2464517 -59.6015625 12.08984375 Z " fill="#0A181E" transform="translate(415.8515625,147.47265625)"/>
<path d="M0 0 C-0.32162109 0.87809326 -0.64324219 1.75618652 -0.97460938 2.66088867 C-6.65300381 18.24305913 -12.2077926 33.8191994 -16.625 49.8125 C-16.94275391 50.95291748 -17.26050781 52.09333496 -17.58789062 53.26831055 C-21.74958075 65.75275632 -21.74958075 65.75275632 -21 78 C-13.08 77.505 -13.08 77.505 -5 77 C-5 80.96 -5 84.92 -5 89 C-15.23770365 91.439623 -24.4829038 92.40278241 -35 92 C-34.48119696 85.34458265 -33.48450914 79.01753233 -31.890625 72.5390625 C-31.68193787 71.66841156 -31.47325073 70.79776062 -31.25823975 69.90072632 C-30.59499099 67.14062144 -29.92259655 64.38283996 -29.25 61.625 C-28.8145176 59.8165474 -28.37961803 58.00795434 -27.9453125 56.19921875 C-26.18343736 48.88587117 -24.41837724 41.57562169 -22.52148438 34.29589844 C-22.28476013 33.37900238 -22.04803589 32.46210632 -21.80413818 31.51742554 C-21.35087413 29.7680206 -20.89077669 28.02036776 -20.4229126 26.27481079 C-19.15420213 21.63834924 -19.15420213 21.63834924 -20 17 C-24.95 17 -29.9 17 -35 17 C-35.08367468 12.14686868 -34.8720551 7.79286977 -34 3 C-22.61984335 0.92170898 -11.55859418 -0.07692434 0 0 Z " fill="#F0F3F2" transform="translate(311,274)"/>
<path d="M0 0 C2.91517292 1.07401108 4.77810176 1.77810176 7 4 C6.67121585 9.11526975 4.66663516 13.52982136 2.6875 18.1875 C-1.21676216 27.7018053 -4.70414996 37.34499137 -8.0625 47.0625 C-8.32115845 47.80992462 -8.57981689 48.55734924 -8.84631348 49.3274231 C-12.78791996 60.78613045 -16.14593829 72.27321606 -18.85766602 84.09008789 C-19.10186279 85.12512451 -19.34605957 86.16016113 -19.59765625 87.2265625 C-19.79883057 88.12971191 -20.00000488 89.03286133 -20.20727539 89.96337891 C-20.46887451 90.63546387 -20.73047363 91.30754883 -21 92 C-22.485 92.495 -22.485 92.495 -24 93 C-26.6875 91.5625 -26.6875 91.5625 -29 90 C-28.3473589 82.03777856 -26.41061442 74.81738131 -24.171875 67.171875 C-21.67145166 58.39587934 -19.79980966 51.49858727 -23.3125 42.75 C-23.57015137 42.08887207 -23.82780273 41.42774414 -24.09326172 40.74658203 C-25.77818372 36.55494208 -27.71500085 32.53019015 -29.76953125 28.5078125 C-30.24028076 27.57356445 -30.71103027 26.63931641 -31.19604492 25.67675781 C-32.1371146 23.83159881 -33.10427981 21.99948273 -34.09887695 20.18261719 C-35.33257664 17.7761356 -36.36575805 15.62924242 -37 13 C-35.5859375 9.5078125 -35.5859375 9.5078125 -33 7 C-31.35 6.34 -29.7 5.68 -28 5 C-23.71 13.91 -19.42 22.82 -15 32 C-11.30316525 29.5354435 -10.90372461 27.85860404 -9.3359375 23.75 C-9.09839752 23.13608398 -8.86085754 22.52216797 -8.61611938 21.88964844 C-7.8599687 19.92979055 -7.117226 17.96516833 -6.375 16 C-5.6226715 14.03606711 -4.86769152 12.07316854 -4.11245728 10.11035156 C-3.42929456 8.3303969 -2.75234061 6.54806299 -2.07568359 4.765625 C-1 2 -1 2 0 0 Z " fill="#F1F4F3" transform="translate(500,273)"/>
<path d="M0 0 C0 25.41 0 50.82 0 77 C3.465 76.505 3.465 76.505 7 76 C9.6793948 75.89248014 12.31632049 75.9529179 15 76 C15 79.3 15 82.6 15 86 C12.87825136 86.51362215 10.75235545 87.01011858 8.625 87.5 C7.44164062 87.7784375 6.25828125 88.056875 5.0390625 88.34375 C1 89 1 89 -9 89 C-9 59.96 -9 30.92 -9 1 C-7 0 -7 0 0 0 Z " fill="#F2F4F4" transform="translate(441,277)"/>
<path d="M0 0 C4.45831982 -0.02891546 8.91661569 -0.04676981 13.375 -0.0625 C14.64601563 -0.07087891 15.91703125 -0.07925781 17.2265625 -0.08789062 C19.04414063 -0.09272461 19.04414063 -0.09272461 20.8984375 -0.09765625 C22.01911621 -0.10289307 23.13979492 -0.10812988 24.29443359 -0.11352539 C27 0 27 0 29 1 C29.04936158 6.09031755 29.08570105 11.18049643 29.10986328 16.27099609 C29.11993376 18.00344265 29.13359089 19.73587216 29.15087891 21.46826172 C29.17508162 23.95544639 29.18647239 26.44240675 29.1953125 28.9296875 C29.20563507 29.70682098 29.21595764 30.48395447 29.22659302 31.28463745 C29.22699271 33.19125493 29.1223214 35.09731036 29 37 C27 39 27 39 23.0859375 39.1953125 C21.51550649 39.18200376 19.94513779 39.15813602 18.375 39.125 C17.57320313 39.11597656 16.77140625 39.10695312 15.9453125 39.09765625 C13.96341477 39.07406223 11.98167019 39.03819065 10 39 C10 39.66 10 40.32 10 41 C9.34 41 8.68 41 8 41 C8 40.34 8 39.68 8 39 C7.40316406 39.08378906 6.80632812 39.16757813 6.19140625 39.25390625 C0.05346354 39.9744077 -5.90511704 40.01534626 -12.0625 39.6875 C-12.81265381 39.65277588 -13.56280762 39.61805176 -14.33569336 39.58227539 C-19.75516455 39.24483545 -19.75516455 39.24483545 -22 37 C-22.22705078 34.93701172 -22.22705078 34.93701172 -22.1953125 32.4296875 C-22.18886719 31.53378906 -22.18242187 30.63789063 -22.17578125 29.71484375 C-22.15902344 28.77769531 -22.14226562 27.84054688 -22.125 26.875 C-22.11597656 25.93011719 -22.10695313 24.98523438 -22.09765625 24.01171875 C-22.07404522 21.67422708 -22.04111516 19.33723877 -22 17 C-21.34 17.33 -20.68 17.66 -20 18 C-20 21.96 -20 25.92 -20 30 C-4.49 30 11.02 30 27 30 C26.67 21.09 26.34 12.18 26 3 C13.13 2.505 13.13 2.505 0 2 C0 1.34 0 0.68 0 0 Z " fill="#071217" transform="translate(388,189)"/>
<path d="M0 0 C3.0978561 0.25117752 4.57521592 0.52801769 6.6875 2.875 C9.94305244 10.62631533 10.22847119 18.69252147 10.375 27 C10.41403442 28.25611084 10.41403442 28.25611084 10.45385742 29.53759766 C10.47129464 35.44821459 10.47129464 35.44821459 8.26171875 38.03515625 C5.8200873 39.07675032 4.08730148 39.43301641 1.4375 39.4375 C0.67308594 39.45683594 -0.09132813 39.47617187 -0.87890625 39.49609375 C-3 39 -3 39 -4.7578125 37.36328125 C-8.90222661 29.47846823 -6.01253404 13.49631114 -4 5 C-1.921875 2.03515625 -1.921875 2.03515625 0 0 Z " fill="#081218" transform="translate(339,294)"/>
<path d="M0 0 C3.40250423 1.27593908 3.91179133 2.69982943 5.5 5.9375 C7.3042624 14.37990427 9.72241254 25.71483053 6.25 33.875 C3.44474179 37.18119717 1.84601481 38.77268186 -2.5625 39.3125 C-5.5 38.9375 -5.5 38.9375 -7.15869141 37.81787109 C-9.13099849 35.05290765 -8.88867287 32.84536001 -8.8984375 29.4765625 C-8.90230469 28.20039063 -8.90617187 26.92421875 -8.91015625 25.609375 C-8.90387207 24.94486328 -8.89758789 24.28035156 -8.89111328 23.59570312 C-8.87510801 21.5761293 -8.8909369 19.55857273 -8.91015625 17.5390625 C-8.90628906 16.2603125 -8.90242188 14.9815625 -8.8984375 13.6640625 C-8.89505371 12.49439941 -8.89166992 11.32473633 -8.88818359 10.11962891 C-8.45909038 6.60214404 -7.62124266 4.75024908 -5.5 1.9375 C-2.5 -0.0625 -2.5 -0.0625 0 0 Z " fill="#081319" transform="translate(396.5,286.0625)"/>
<path d="M0 0 C2.875 -0.125 2.875 -0.125 6 0 C6.66 0.66 7.32 1.32 8 2 C9.32594105 2.36162029 10.65938457 2.69728039 12 3 C13 4 13 4 13.0625 6.5625 C13.041875 7.366875 13.02125 8.17125 13 9 C13.99 9.33 14.98 9.66 16 10 C16.1875 12.375 16.1875 12.375 16 15 C15.01 15.66 14.02 16.32 13 17 C13.33 17.99 13.66 18.98 14 20 C12.75 21.5 12.75 21.5 11 23 C9.68 23 8.36 23 7 23 C6.67 23.66 6.34 24.32 6 25 C3.125 25.125 3.125 25.125 0 25 C-0.66 24.34 -1.32 23.68 -2 23 C-2.66 22.87625 -3.32 22.7525 -4 22.625 C-6 22 -6 22 -7.3125 20.0625 C-7.539375 19.381875 -7.76625 18.70125 -8 18 C-7.67 17.34 -7.34 16.68 -7 16 C-7.99 15.67 -8.98 15.34 -10 15 C-10 13.35 -10 11.7 -10 10 C-9.01 9.67 -8.02 9.34 -7 9 C-7.226875 8.401875 -7.45375 7.80375 -7.6875 7.1875 C-8 5 -8 5 -6.8125 3.1875 C-5 2 -5 2 -2.8125 2.3125 C-2.214375 2.539375 -1.61625 2.76625 -1 3 C-0.67 2.01 -0.34 1.02 0 0 Z " fill="#0C1B23" transform="translate(369,179)"/>
<path d="M0 0 C0.33 0 0.66 0 1 0 C1.05031533 5.90005317 1.08614094 11.79997518 1.10986328 17.70019531 C1.11977682 19.69761334 1.13331164 21.69501744 1.15087891 23.69238281 C1.24064462 34.17913016 1.14001056 44.57090846 0.1171875 55.015625 C0.00022018 56.22372833 0.00022018 56.22372833 -0.11911011 57.45623779 C-0.63636874 62.17365149 -1.59334125 66.46892895 -3 71 C-3.35371498 72.66246041 -3.69595322 74.32774271 -4 76 C-4.66 76 -5.32 76 -6 76 C-6.33 79.3 -6.66 82.6 -7 86 C-7.66 86 -8.32 86 -9 86 C-9.33 88.64 -9.66 91.28 -10 94 C-10.66 94 -11.32 94 -12 94 C-12.33 95.98 -12.66 97.96 -13 100 C-13.66 100 -14.32 100 -15 100 C-15.08121094 100.82757813 -15.16242187 101.65515625 -15.24609375 102.5078125 C-16.17072539 106.79082126 -17.93356669 110.08042457 -20.0625 113.875 C-20.43955078 114.56335938 -20.81660156 115.25171875 -21.20507812 115.9609375 C-22.12893035 117.6449213 -23.06339667 119.32307467 -24 121 C-24.66 121 -25.32 121 -26 121 C-26.33 122.32 -26.66 123.64 -27 125 C-27.66 125 -28.32 125 -29 125 C-29.33 126.32 -29.66 127.64 -30 129 C-30.66 129 -31.32 129 -32 129 C-32.33 130.32 -32.66 131.64 -33 133 C-33.66 133 -34.32 133 -35 133 C-35.103125 133.598125 -35.20625 134.19625 -35.3125 134.8125 C-36.09824033 137.31258286 -36.96918853 138.37535082 -39 140 C-39.66 140 -40.32 140 -41 140 C-41.226875 140.556875 -41.45375 141.11375 -41.6875 141.6875 C-44.60325066 146.82477497 -49.11238922 149.93103509 -54 153 C-54.66 152.67 -55.32 152.34 -56 152 C-55.04480469 151.09121094 -54.08960938 150.18242187 -53.10546875 149.24609375 C-44.34809763 140.78544778 -36.75657815 132.12928327 -30 122 C-29.28328125 120.93265625 -28.5665625 119.8653125 -27.828125 118.765625 C-10.67445671 92.03781627 -1.37786552 59.71889425 -0.68359375 28.02734375 C-0.66281265 27.21882462 -0.64203156 26.41030548 -0.62062073 25.57728577 C-0.55598384 23.03076486 -0.49664591 20.48415373 -0.4375 17.9375 C-0.3942328 16.19595475 -0.35061612 14.45441814 -0.30664062 12.71289062 C-0.20039252 8.47534948 -0.09889177 4.23771894 0 0 Z " fill="#A1AFB7" transform="translate(586,242)"/>
<path d="M0 0 C0.99 0.495 0.99 0.495 2 1 C-0.81979775 5.66351166 -3.60417387 8.75091112 -8 12 C-8.66 12 -9.32 12 -10 12 C-10 12.66 -10 13.32 -10 14 C-11.84417728 15.285793 -13.75468567 16.47674818 -15.6875 17.625 C-16.88435946 18.3407365 -18.080967 19.05689443 -19.27734375 19.7734375 C-19.89464355 20.14049805 -20.51194336 20.50755859 -21.14794922 20.88574219 C-22.92746324 21.95635937 -24.6869022 23.05302824 -26.44140625 24.1640625 C-31.75541262 27.51433334 -36.94166938 30.63406975 -42.75390625 33.02734375 C-45.25612511 34.11091331 -47.59962548 35.3939061 -50 36.6875 C-60.92854355 42.24438655 -76.83071893 50.26507018 -89.1875 50.0625 C-90.445625 50.041875 -91.70375 50.02125 -93 50 C-90.20188579 48.13459053 -87.78961926 47.23014407 -84.60668945 46.25048828 C-54.21080194 36.88000245 -23.60490381 21.52835033 0 0 Z " fill="#6F838D" transform="translate(526,397)"/>
<path d="M0 0 C15.18 0 30.36 0 46 0 C46.495 2.475 46.495 2.475 47 5 C44.67782321 6.1610884 43.33438469 6.12673847 40.74975586 6.12939453 C39.87222153 6.13254669 38.99468719 6.13569885 38.09056091 6.13894653 C36.66708092 6.13591019 36.66708092 6.13591019 35.21484375 6.1328125 C34.24341934 6.13376923 33.27199493 6.13472595 32.27113342 6.13571167 C30.21582983 6.13639283 28.16052408 6.13454299 26.10522461 6.13037109 C22.94705411 6.1250162 19.78902546 6.13032122 16.63085938 6.13671875 C14.63802052 6.13605807 12.64518175 6.13477712 10.65234375 6.1328125 C9.70133286 6.13483673 8.75032196 6.13686096 7.77049255 6.13894653 C6.89611038 6.13579437 6.02172821 6.13264221 5.12084961 6.12939453 C4.34744736 6.12859894 3.5740451 6.12780334 2.77720642 6.12698364 C1 6 1 6 0 5 C0 3.35 0 1.7 0 0 Z " fill="#829FA9" transform="translate(368,220)"/>
<path d="M0 0 C0.58555664 0.12044678 1.17111328 0.24089355 1.77441406 0.36499023 C8.41438675 1.71393804 15.07029108 2.92763989 21.75 4.0625 C22.73226563 4.23587891 23.71453125 4.40925781 24.7265625 4.58789062 C38.51931046 6.92549271 52.31861582 7.2351974 66.27416992 7.29516602 C68.1206023 7.30664458 69.96700258 7.32703048 71.81323242 7.35668945 C83.31702348 7.5402006 94.04207612 6.83729096 105.29762268 4.31916809 C106.11907272 4.13674057 106.94052277 3.95431305 107.78686523 3.76635742 C108.50607651 3.59553146 109.22528778 3.42470551 109.96629333 3.248703 C112.23805243 2.97088845 113.83182014 3.31597035 116 4 C107.03547155 12.96452845 81.57959204 11.18208171 69.625 11.3125 C50.17875599 11.26446976 29.95819929 9.28088371 11 5 C10.05253906 4.82597656 9.10507812 4.65195312 8.12890625 4.47265625 C5.625 4 5.625 4 2 3 C1.34 2.01 0.68 1.02 0 0 Z " fill="#87989F" transform="translate(316,444)"/>
<path d="M0 0 C0.66 0 1.32 0 2 0 C2.33 0.66 2.66 1.32 3 2 C4.65 2 6.3 2 8 2 C8 3.98 8 5.96 8 8 C8.99 8 9.98 8 11 8 C10.67 8.99 10.34 9.98 10 11 C9.34 11 8.68 11 8 11 C8 12.98 8 14.96 8 17 C6.02 17 4.04 17 2 17 C2 17.99 2 18.98 2 20 C1.34 20 0.68 20 0 20 C-0.474375 19.505 -0.94875 19.01 -1.4375 18.5 C-2.99969942 16.65373409 -2.99969942 16.65373409 -6 17 C-6.12375 16.195625 -6.2475 15.39125 -6.375 14.5625 C-6.684375 13.2940625 -6.684375 13.2940625 -7 12 C-7.66 11.67 -8.32 11.34 -9 11 C-9 10.01 -9 9.02 -9 8 C-8.34 7.67 -7.68 7.34 -7 7 C-6.34444881 4.47266765 -6.34444881 4.47266765 -6 2 C-4.7934375 1.7834375 -4.7934375 1.7834375 -3.5625 1.5625 C-1.07896294 1.25864751 -1.07896294 1.25864751 0 0 Z " fill="#E5ECEC" transform="translate(371,182)"/>
<path d="M0 0 C0.99 0.495 0.99 0.495 2 1 C2 1.66 2 2.32 2 3 C2.66 3 3.32 3 4 3 C4.33 5.97 4.66 8.94 5 12 C5.66 12 6.32 12 7 12 C7.33 16.62 7.66 21.24 8 26 C8.66 26 9.32 26 10 26 C11.69639433 33.81732512 12.31931042 41.26011751 12.25 49.25 C12.24613281 50.33595459 12.24226562 51.42190918 12.23828125 52.54077148 C12.14950559 60.83204826 11.48579412 68.84139836 10 77 C9.34 77 8.68 77 8 77 C8 62.81 8 48.62 8 34 C7.67 34 7.34 34 7 34 C6.90203125 33.23558594 6.8040625 32.47117188 6.703125 31.68359375 C5.63744355 24.04927229 3.99941814 16.80926777 1.90234375 9.41015625 C1.07364315 6.27831373 0.47424319 3.20236381 0 0 Z " fill="#EBEEEF" transform="translate(578,213)"/>
<path d="M0 0 C0.66 0.33 1.32 0.66 2 1 C-0.81979775 5.66351166 -3.60417387 8.75091112 -8 12 C-8.66 12 -9.32 12 -10 12 C-10 12.66 -10 13.32 -10 14 C-11.84417728 15.285793 -13.75468567 16.47674818 -15.6875 17.625 C-16.87666221 18.33403177 -18.06545331 19.04368626 -19.25390625 19.75390625 C-19.87023926 20.12016113 -20.48657227 20.48641602 -21.12158203 20.86376953 C-22.98653726 21.99185656 -24.82149774 23.15732971 -26.65234375 24.33984375 C-27.2347583 24.71222168 -27.81717285 25.08459961 -28.41723633 25.46826172 C-30.05448282 26.51731659 -31.68749803 27.57296633 -33.3203125 28.62890625 C-34.20460938 29.08136719 -35.08890625 29.53382813 -36 30 C-36.99 29.67 -37.98 29.34 -39 29 C-35.0053422 24.58610089 -30.69425617 21.83792654 -25.5625 18.875 C-16.4637134 13.4821276 -7.5126553 7.5126553 0 0 Z " fill="#80939E" transform="translate(526,397)"/>
<path d="M0 0 C0.495 1.485 0.495 1.485 1 3 C0.04060332 4.69036558 -0.96642853 6.35394174 -2 8 C-2.71143088 9.98451771 -3.38991336 11.98202112 -4 14 C-4.66 14 -5.32 14 -6 14 C-6.33 15.32 -6.66 16.64 -7 18 C-7.66 18 -8.32 18 -9 18 C-9.33 19.32 -9.66 20.64 -10 22 C-10.66 22 -11.32 22 -12 22 C-12.103125 22.598125 -12.20625 23.19625 -12.3125 23.8125 C-13.09824033 26.31258286 -13.96918853 27.37535082 -16 29 C-16.66 29 -17.32 29 -18 29 C-18.226875 29.556875 -18.45375 30.11375 -18.6875 30.6875 C-21.60325066 35.82477497 -26.11238922 38.93103509 -31 42 C-31.66 41.67 -32.32 41.34 -33 41 C-31.56720703 39.63681641 -31.56720703 39.63681641 -30.10546875 38.24609375 C-18.11822077 26.66339983 -8.65762827 14.21269351 0 0 Z " fill="#A4B3BA" transform="translate(563,353)"/>
<path d="M0 0 C0.33 0 0.66 0 1 0 C1.05031533 5.90005317 1.08614094 11.79997518 1.10986328 17.70019531 C1.11977682 19.69761334 1.13331164 21.69501744 1.15087891 23.69238281 C1.24117615 34.24122564 1.13030111 44.695286 0.1171875 55.203125 C0.03920929 56.03366394 -0.03876892 56.86420288 -0.11911011 57.71990967 C-0.52818837 61.49818475 -0.92102949 64.75877039 -3 68 C-3.66 68 -4.32 68 -5 68 C-5 69.98 -5 71.96 -5 74 C-5.66 74 -6.32 74 -7 74 C-6.1373315 68.64130624 -5.25561371 63.28804976 -4.234375 57.95703125 C-4.10264893 57.26931641 -3.97092285 56.58160156 -3.83520508 55.87304688 C-3.45447201 53.90043354 -3.06913976 51.92870955 -2.68359375 49.95703125 C-1.36003066 42.68282013 -0.84533591 35.41041751 -0.68359375 28.02734375 C-0.66281265 27.21882462 -0.64203156 26.41030548 -0.62062073 25.57728577 C-0.55598384 23.03076486 -0.49664591 20.48415373 -0.4375 17.9375 C-0.3942328 16.19595475 -0.35061612 14.45441814 -0.30664062 12.71289062 C-0.20039252 8.47534948 -0.09889177 4.23771894 0 0 Z " fill="#5A737E" transform="translate(586,242)"/>
<path d="M0 0 C0 0.66 0 1.32 0 2 C0.99 2 1.98 2 3 2 C3.66 3.98 4.32 5.96 5 8 C4.34 8 3.68 8 3 8 C3 9.32 3 10.64 3 12 C0.00507424 12.68066494 -2.30087749 13.17005683 -5.3125 12.4375 C-7 11 -7 11 -8.0625 8.1875 C-8 5 -8 5 -5.75 2.125 C-3 0 -3 0 0 0 Z " fill="#1B323C" transform="translate(358,198)"/>
<path d="M0 0 C7.59 0 15.18 0 23 0 C23 1.32 23 2.64 23 4 C20.59940183 5.20029908 19.10639351 5.11459743 16.4296875 5.09765625 C15.53378906 5.09443359 14.63789063 5.09121094 13.71484375 5.08789062 C12.77769531 5.07951172 11.84054687 5.07113281 10.875 5.0625 C9.93011719 5.05798828 8.98523438 5.05347656 8.01171875 5.04882812 C5.67441613 5.03702357 3.33723939 5.02055759 1 5 C0.67 3.35 0.34 1.7 0 0 Z " fill="#E7F0F0" transform="translate(392,221)"/>
<path d="M0 0 C5.75 0.75 5.75 0.75 8 3 C8.3633156 5.83386167 8.3568671 7.40522151 6.875 9.875 C4.07848948 11.55290631 2.06309468 10.74875648 -1 10 C-2.1875 7.25 -2.1875 7.25 -3 4 C-1.625 1.625 -1.625 1.625 0 0 Z " fill="#0B1920" transform="translate(369,186)"/>
<path d="M0 0 C0.58555664 0.12044678 1.17111328 0.24089355 1.77441406 0.36499023 C17.02872969 3.46399026 32.41268268 6.4511508 48 7 C40.97054477 10.97984701 32.33753171 8.83279417 24.6875 7.6875 C23.77121826 7.55214844 22.85493652 7.41679687 21.91088867 7.27734375 C6.89673431 4.98441766 6.89673431 4.98441766 2 3 C1.34 2.01 0.68 1.02 0 0 Z " fill="#8A9BA3" transform="translate(316,444)"/>
<path d="M0 0 C6.93 0 13.86 0 21 0 C21 1.32 21 2.64 21 4 C14.07 4 7.14 4 0 4 C0 2.68 0 1.36 0 0 Z " fill="#F5F6F5" transform="translate(368,221)"/>
<path d="M0 0 C3.54028641 1.57900098 6.33485444 3.73452938 9.375 6.125 C15.90095755 11.09600717 22.80063488 15.09146894 30 19 C30 19.33 30 19.66 30 20 C25.37495297 20.45143185 22.84941236 19.07618985 18.9375 16.6875 C17.91527344 16.07261719 16.89304687 15.45773437 15.83984375 14.82421875 C11.01421296 11.72439815 11.01421296 11.72439815 9 10 C9 9.34 9 8.68 9 8 C8.2575 7.773125 7.515 7.54625 6.75 7.3125 C3.47430322 5.74909927 2.04696424 3.95672612 0 1 C0 0.67 0 0.34 0 0 Z " fill="#DEE5E8" transform="translate(269,418)"/>
<path d="M0 0 C2 2 2 2 2.22705078 3.87939453 C2.21657715 4.62302246 2.20610352 5.36665039 2.1953125 6.1328125 C2.18886719 6.93847656 2.18242187 7.74414062 2.17578125 8.57421875 C2.15902344 9.41597656 2.14226562 10.25773437 2.125 11.125 C2.11597656 11.97449219 2.10695313 12.82398438 2.09765625 13.69921875 C2.07405647 15.79959884 2.03818483 17.89983444 2 20 C0.35 19.67 -1.3 19.34 -3 19 C-2.58955515 12.42208127 -2.13391403 6.25948114 0 0 Z " fill="#ECF1F1" transform="translate(341,307)"/>
<path d="M0 0 C0.99 0.495 0.99 0.495 2 1 C2 1.66 2 2.32 2 3 C2.66 3 3.32 3 4 3 C4.33 5.97 4.66 8.94 5 12 C5.66 12 6.32 12 7 12 C7.36395805 14.7281814 7.71644812 17.45703905 8.0625 20.1875 C8.2181543 21.34088867 8.2181543 21.34088867 8.37695312 22.51757812 C8.88416982 26.59280194 9.15145497 29.98198579 8 34 C7.67 34 7.34 34 7 34 C6.90203125 33.23558594 6.8040625 32.47117188 6.703125 31.68359375 C5.63744355 24.04927229 3.99941814 16.80926777 1.90234375 9.41015625 C1.07364315 6.27831373 0.47424319 3.20236381 0 0 Z " fill="#A4B5BD" transform="translate(578,213)"/>
<path d="M0 0 C0.66 0.33 1.32 0.66 2 1 C3.18316426 8.45393485 4.11820007 16.65354422 2 24 C1.01 24 0.02 24 -1 24 C-1.16677223 15.95787245 -0.6466598 8.01396246 0 0 Z " fill="#D7E4E6" transform="translate(395,294)"/>
<path d="M0 0 C1.98 0.99 1.98 0.99 4 2 C4 2.99 4 3.98 4 5 C4.66 5 5.32 5 6 5 C6.33 6.65 6.66 8.3 7 10 C7.66 10 8.32 10 9 10 C9.33 12.31 9.66 14.62 10 17 C10.66 17 11.32 17 12 17 C12.66 20.3 13.32 23.6 14 27 C11.15311068 24.15311068 9.98611286 22.2756045 8.30078125 18.7109375 C7.81416016 17.68742187 7.32753906 16.66390625 6.82617188 15.609375 C6.32666016 14.54203125 5.82714844 13.4746875 5.3125 12.375 C4.80138672 11.29992187 4.29027344 10.22484375 3.76367188 9.1171875 C0 1.15769985 0 1.15769985 0 0 Z " fill="#E0E5E8" transform="translate(558,170)"/>
<path d="M0 0 C0.33 0.99 0.66 1.98 1 3 C0.04060332 4.69036558 -0.96642853 6.35394174 -2 8 C-2.71143088 9.98451771 -3.38991336 11.98202112 -4 14 C-4.66 14 -5.32 14 -6 14 C-6.061875 14.598125 -6.12375 15.19625 -6.1875 15.8125 C-7.33271869 18.89578108 -9.17414947 19.39440311 -12 21 C-13.7041054 22.62836738 -15.38025441 24.28769752 -17 26 C-15.65089758 23.14986742 -14.12248024 20.6270221 -12.28515625 18.06640625 C-11.76373047 17.33486328 -11.24230469 16.60332031 -10.70507812 15.84960938 C-10.16302734 15.09486328 -9.62097656 14.34011719 -9.0625 13.5625 C-4.29567123 6.93658159 -4.29567123 6.93658159 0 0 Z " fill="#748A95" transform="translate(563,353)"/>
<path d="M0 0 C0.66 1.98 1.32 3.96 2 6 C6.23646767 7.0089034 6.23646767 7.0089034 10.375 6.0625 C10.91125 5.711875 11.4475 5.36125 12 5 C10.625 7.5 10.625 7.5 9 10 C8.34 10 7.68 10 7 10 C7 10.99 7 11.98 7 13 C6.34 13 5.68 13 5 13 C4.525625 12.505 4.05125 12.01 3.5625 11.5 C2.00030058 9.65373409 2.00030058 9.65373409 -1 10 C-1.12375 9.195625 -1.2475 8.39125 -1.375 7.5625 C-1.684375 6.2940625 -1.684375 6.2940625 -2 5 C-2.66 4.67 -3.32 4.34 -4 4 C-4 3.01 -4 2.02 -4 1 C-2 0 -2 0 0 0 Z " fill="#DAE4E5" transform="translate(366,189)"/>
<path d="M0 0 C0.66 0.33 1.32 0.66 2 1 C-1.45419814 4.99532579 -5.40665157 7.02019659 -10.0625 9.3125 C-10.78244141 9.68439453 -11.50238281 10.05628906 -12.24414062 10.43945312 C-17.62813895 13.12395368 -17.62813895 13.12395368 -21 12 C-20.071875 11.566875 -19.14375 11.13375 -18.1875 10.6875 C-15.12834466 9.28745524 -15.12834466 9.28745524 -13.6796875 7.59765625 C-11.35856744 5.38989322 -8.79571032 4.18084162 -5.9375 2.75 C-4.87402344 2.20859375 -3.81054688 1.6671875 -2.71484375 1.109375 C-1.81894531 0.74328125 -0.92304688 0.3771875 0 0 Z " fill="#C3CBCF" transform="translate(487,424)"/>
<path d="M0 0 C0.93423645 3.01031744 1.04449911 3.86650268 0 7 C-0.99 7 -1.98 7 -3 7 C-3.33 7.66 -3.66 8.32 -4 9 C-5.65 7.35 -7.3 5.7 -9 4 C-8.34 3.67 -7.68 3.34 -7 3 C-7 2.01 -7 1.02 -7 0 C-3.86650268 -1.04449911 -3.01031744 -0.93423645 0 0 Z " fill="#D4E1E3" transform="translate(360,201)"/>
<path d="M0 0 C-6.85902346 4.5726823 -14.82055673 6.62918794 -23 6 C-16.14097654 1.4273177 -8.17944327 -0.62918794 0 0 Z " fill="#A5B2B8" transform="translate(456,441)"/>
<path d="M0 0 C1.9375 0.3125 1.9375 0.3125 4 1 C4.33 1.99 4.66 2.98 5 4 C5.66 4 6.32 4 7 4 C11 8.47058824 11 8.47058824 11 11 C11.99 11.33 12.98 11.66 14 12 C14 12.66 14 13.32 14 14 C14.66 14 15.32 14 16 14 C16.33 15.32 16.66 16.64 17 18 C13.28631113 16.76210371 12.22645819 15.14775123 10 12 C10 11.34 10 10.68 10 10 C9.34 10 8.68 10 8 10 C6.30859375 8.3203125 6.30859375 8.3203125 4.4375 6.125 C3.50744141 5.04605469 3.50744141 5.04605469 2.55859375 3.9453125 C1 2 1 2 0 0 Z " fill="#CFD9DE" transform="translate(517,114)"/>
<path d="M0 0 C1.32 0.33 2.64 0.66 4 1 C4 2.32 4 3.64 4 5 C-3.92 5 -11.84 5 -20 5 C-20 4.67 -20 4.34 -20 4 C-13.4 4 -6.8 4 0 4 C0 2.68 0 1.36 0 0 Z " fill="#95B5BD" transform="translate(389,221)"/>
<path d="M0 0 C4.19208552 0.55793944 6.81593258 1.93825156 10.25 4.375 C11.12140625 4.98085937 11.9928125 5.58671875 12.890625 6.2109375 C15 8 15 8 16 11 C12.3540648 9.30977276 9.09204498 7.1614937 5.75 4.9375 C4.67234375 4.22464844 3.5946875 3.51179688 2.484375 2.77734375 C1.66453125 2.19082031 0.8446875 1.60429688 0 1 C0 0.67 0 0.34 0 0 Z " fill="#E3EAED" transform="translate(487,90)"/>
<path d="M0 0 C-2.7343066 2.7343066 -4.76993555 2.95340665 -8.578125 3.09765625 C-9.45984375 3.08605469 -10.3415625 3.07445312 -11.25 3.0625 C-12.14203125 3.05347656 -13.0340625 3.04445313 -13.953125 3.03515625 C-14.62859375 3.02355469 -15.3040625 3.01195312 -16 3 C-13.2403139 1.16020927 -11.70258118 0.51676779 -8.5625 -0.1875 C-7.41974609 -0.45626953 -7.41974609 -0.45626953 -6.25390625 -0.73046875 C-3.87041504 -1.0154963 -2.26895796 -0.72875415 0 0 Z " fill="#657983" transform="translate(432,448)"/>
<path d="M0 0 C6.31121503 1.0992895 12.06338584 2.58137942 18 5 C14.30261419 6.32177077 11.63059161 5.69120478 7.875 4.75 C6.29332031 4.37101562 6.29332031 4.37101562 4.6796875 3.984375 C2 3 2 3 0 0 Z " fill="#A3B0B5" transform="translate(316,444)"/>
<path d="M0 0 C0 0.66 0 1.32 0 2 C-2.07828493 3.50312477 -4.12791551 4.85724824 -6.3125 6.1875 C-6.90740234 6.56841797 -7.50230469 6.94933594 -8.11523438 7.34179688 C-9.69380094 8.31362948 -11.34486531 9.16521849 -13 10 C-13.99 9.67 -14.98 9.34 -16 9 C-15.49210937 8.68546875 -14.98421875 8.3709375 -14.4609375 8.046875 C-11.14018404 5.98228671 -7.84289615 3.90975996 -4.625 1.6875 C-2 0 -2 0 0 0 Z " fill="#E8EBEC" transform="translate(503,417)"/>
<path d="M0 0 C1.921875 0.6171875 1.921875 0.6171875 4 2 C4.828125 4.8203125 4.828125 4.8203125 5.25 8.125 C5.39953125 9.22070312 5.5490625 10.31640625 5.703125 11.4453125 C5.80109375 12.28835937 5.8990625 13.13140625 6 14 C3.52813545 11.03653214 2.33751639 8.45958311 1.3125 4.75 C1.06113281 3.85796875 0.80976562 2.9659375 0.55078125 2.046875 C0.36902344 1.37140625 0.18726563 0.6959375 0 0 Z " fill="#B2C1C8" transform="translate(572,198)"/>
<path d="M0 0 C1 3 1 3 1 7 C2.32 7 3.64 7 5 7 C5.66 7.33 6.32 7.66 7 8 C6.67 8.66 6.34 9.32 6 10 C3.125 9.75 3.125 9.75 0 9 C-1.4375 7.1875 -1.4375 7.1875 -2 5 C-1.5 1.5 -1.5 1.5 0 0 Z " fill="#0B1F28" transform="translate(352,201)"/>
<path d="M0 0 C1.60597325 0.45196245 3.20972508 0.91182327 4.8125 1.375 C6.15248047 1.75785156 6.15248047 1.75785156 7.51953125 2.1484375 C10 3 10 3 13 5 C8.00815264 5.29363808 5.02555256 5.07836372 1 2 C0.67 1.34 0.34 0.68 0 0 Z " fill="#A6B4BA" transform="translate(302,439)"/>
<path d="M0 0 C0.66 0.33 1.32 0.66 2 1 C0.21825212 3.30142435 -1.16304165 4.80034391 -4.046875 5.48828125 C-6.0246611 5.72323102 -8.01271872 5.86751458 -10 6 C-6.87511433 3.47605388 -3.68685613 1.60298093 0 0 Z " fill="#708490" transform="translate(487,424)"/>
<path d="M0 0 C1.921875 0.6796875 1.921875 0.6796875 4 2 C4.828125 4.3828125 4.828125 4.3828125 5.25 7.125 C5.39953125 8.03507813 5.5490625 8.94515625 5.703125 9.8828125 C5.80109375 10.58148438 5.8990625 11.28015625 6 12 C3.32098068 9.68118495 2.33795597 7.68185532 1.3125 4.3125 C1.06113281 3.50425781 0.80976562 2.69601563 0.55078125 1.86328125 C0.36902344 1.24839844 0.18726563 0.63351563 0 0 Z " fill="#B7C5CC" transform="translate(566,185)"/>
<path d="M0 0 C0.99 0.495 0.99 0.495 2 1 C2 1.66 2 2.32 2 3 C2.66 3 3.32 3 4 3 C4.33 4.98 4.66 6.96 5 9 C4.01 9 3.02 9 2 9 C1.34 6.03 0.68 3.06 0 0 Z " fill="#BDCAD1" transform="translate(578,213)"/>
<path d="M0 0 C1.32 0 2.64 0 4 0 C4 1.65 4 3.3 4 5 C2.35 4.67 0.7 4.34 -1 4 C-0.67 2.68 -0.34 1.36 0 0 Z " fill="#D5DEE1" transform="translate(370,189)"/>
<path d="M0 0 C4.04256383 1.22217046 7.49288959 2.62754296 11 5 C11 5.33 11 5.66 11 6 C9.35 6 7.7 6 6 6 C5.67 5.01 5.34 4.02 5 3 C2.49552484 1.78130071 2.49552484 1.78130071 0 1 C0 0.67 0 0.34 0 0 Z " fill="#B6C3C9" transform="translate(288,432)"/>
<path d="M0 0 C0.66 0.33 1.32 0.66 2 1 C1.8125 3.3125 1.8125 3.3125 1 6 C-1.5625 7.8125 -1.5625 7.8125 -4 9 C-4 6 -4 6 -2.5625 4.5 C-2.046875 4.005 -1.53125 3.51 -1 3 C-0.67 2.01 -0.34 1.02 0 0 Z " fill="#18303B" transform="translate(384,228)"/>
<path d="M0 0 C1.32 0.66 2.64 1.32 4 2 C3.67 2.99 3.34 3.98 3 5 C1.68 5 0.36 5 -1 5 C-0.67 3.35 -0.34 1.7 0 0 Z " fill="#3D5661" transform="translate(355,202)"/>
<path d="M0 0 C1.875 0.5 1.875 0.5 4 2 C4.98494554 4.65177645 5.45912382 7.20547307 6 10 C3.38275905 7.63202009 1.67138271 5.10399646 0 2 C0 1.34 0 0.68 0 0 Z " fill="#C1CED5" transform="translate(546,149)"/>
<path d="M0 0 C0 3 0 3 -1.3125 4.38671875 C-2.875 5.59114583 -4.4375 6.79557292 -6 8 C-6.66 7.67 -7.32 7.34 -8 7 C-5.61042731 3.75700849 -3.7952131 1.49097658 0 0 Z " fill="#C2CACF" transform="translate(533,393)"/>
<path d="M0 0 C0.33 0 0.66 0 1 0 C0.25 6.625 0.25 6.625 -2 10 C-2.66 10 -3.32 10 -4 10 C-2.8905928 6.51329166 -1.73662334 3.22515763 0 0 Z " fill="#E9ECED" transform="translate(564,353)"/>
<path d="M0 0 C1.921875 0.7109375 1.921875 0.7109375 4 2 C4.828125 4.1640625 4.828125 4.1640625 5.25 6.625 C5.39953125 7.44226563 5.5490625 8.25953125 5.703125 9.1015625 C5.80109375 9.72804687 5.8990625 10.35453125 6 11 C3.13546142 7.58983503 1.65296434 4.09305456 0 0 Z " fill="#9EAEB8" transform="translate(558,170)"/>
<path d="M0 0 C-0.33 0.99 -0.66 1.98 -1 3 C-3.64 3 -6.28 3 -9 3 C-5.73209435 0.82139623 -3.91954654 0 0 0 Z " fill="#6B7F89" transform="translate(442,444)"/>
</svg>
